<?xml version="1.0" standalone="no"?>
<!DOCTYPE svg PUBLIC "-//W3C//DTD SVG 20010904//EN"
 "http://www.w3.org/TR/2001/REC-SVG-20010904/DTD/svg10.dtd">
<svg version="1.0" xmlns="http://www.w3.org/2000/svg"
 width="800.000000pt" height="800.000000pt" viewBox="0 0 800.000000 800.000000"
 preserveAspectRatio="xMidYMid meet">
<metadata>
Created by potrace 1.11, written by Peter Selinger 2001-2013
</metadata>
<g transform="translate(0.000000,800.000000) scale(0.100000,-0.100000)"
fill="#000000" stroke="none">
<path d="M3894 7763 c-8 -8 -17 -26 -21 -41 -3 -15 -14 -40 -23 -57 -9 -16
-15 -36 -13 -42 3 -7 0 -13 -6 -13 -6 0 -11 -9 -11 -20 0 -11 -5 -20 -12 -20
-6 0 -8 -3 -5 -6 3 -4 1 -16 -5 -28 -7 -11 -13 -25 -14 -31 -3 -19 -88 -220
-95 -225 -3 -3 -5 -13 -3 -22 1 -10 -1 -18 -6 -18 -4 0 -10 -10 -14 -22 -3
-13 -6 -24 -6 -25 -1 -2 -12 -29 -27 -60 -31 -71 -46 -106 -48 -115 -2 -5 -4
-11 -5 -15 -1 -5 -2 -11 -1 -15 0 -5 -3 -8 -9 -8 -5 0 -9 -3 -8 -7 3 -15 -14
-63 -23 -63 -5 0 -8 -3 -7 -7 3 -15 -25 -93 -34 -93 -4 0 -8 -7 -8 -16 0 -8
-8 -34 -19 -57 -22 -51 -29 -70 -27 -78 0 -3 -5 -13 -13 -22 -7 -10 -10 -17
-6 -17 5 0 0 -9 -11 -21 -10 -12 -18 -24 -16 -28 2 -5 -6 -28 -39 -106 -49
-115 -101 -249 -99 -253 1 -2 -5 -13 -12 -25 -8 -12 -27 -56 -43 -97 -16 -41
-33 -80 -38 -87 -5 -7 -6 -16 -3 -22 3 -5 2 -11 -2 -13 -5 -1 -26 -46 -46 -98
-21 -52 -42 -100 -47 -106 -5 -6 -6 -14 -2 -17 3 -4 0 -7 -7 -7 -7 0 -11 -3
-7 -6 5 -5 -19 -69 -88 -229 -44 -102 -145 -357 -145 -365 0 -6 -5 -10 -11
-10 -5 0 -8 -3 -5 -8 2 -4 -4 -25 -14 -47 -11 -22 -19 -46 -20 -52 0 -7 -4
-13 -8 -13 -4 0 -8 -8 -9 -18 -1 -10 -12 -43 -26 -73 -22 -49 -37 -85 -42 -99
-1 -3 -5 -14 -10 -25 -5 -11 -23 -56 -41 -99 -19 -43 -31 -83 -28 -87 3 -5 1
-9 -4 -9 -5 0 -20 -28 -32 -62 -13 -35 -27 -68 -32 -74 -4 -6 -5 -14 -1 -17 3
-4 1 -7 -5 -7 -7 0 -11 -3 -10 -7 1 -5 -3 -17 -9 -28 -6 -11 -11 -22 -11 -25
-1 -5 -18 -55 -29 -80 -3 -8 -7 -17 -8 -20 0 -3 -9 -20 -18 -37 -10 -18 -17
-35 -17 -38 0 -3 -6 -20 -13 -38 -8 -17 -22 -54 -32 -82 -11 -27 -23 -53 -28
-56 -5 -3 -8 -9 -8 -13 1 -7 -6 -29 -22 -71 -7 -16 -11 -33 -9 -37 1 -5 -3 -8
-8 -8 -6 0 -10 -9 -10 -21 0 -13 -4 -18 -12 -13 -7 4 -8 3 -4 -4 4 -6 2 -19
-3 -29 -5 -10 -19 -41 -30 -70 -12 -28 -26 -64 -33 -80 -6 -15 -12 -30 -13
-33 -8 -24 -27 -68 -35 -83 -6 -10 -8 -22 -5 -27 4 -6 1 -10 -5 -10 -6 0 -8
-5 -5 -10 3 -6 0 -13 -8 -16 -7 -2 -14 -11 -14 -19 0 -13 -6 -30 -55 -142 -10
-23 -18 -49 -18 -57 0 -9 -4 -16 -10 -16 -5 0 -10 -8 -10 -18 0 -9 -14 -46
-31 -80 -17 -35 -28 -66 -25 -69 3 -3 -1 -12 -9 -20 -8 -8 -15 -23 -15 -34 0
-10 -5 -19 -12 -19 -6 0 -9 -3 -5 -6 5 -5 -50 -147 -73 -187 -6 -10 -8 -22 -5
-27 4 -6 2 -10 -3 -10 -9 0 -27 -47 -24 -62 1 -5 -3 -8 -8 -8 -6 0 -10 -4 -10
-9 0 -5 -5 -22 -12 -38 -6 -15 -12 -30 -12 -33 -1 -7 -104 -257 -127 -307 -10
-24 -19 -45 -19 -47 0 -2 -8 -21 -17 -42 -9 -22 -17 -41 -18 -44 -1 -3 -9 -23
-19 -45 -10 -22 -19 -44 -21 -50 -14 -45 -19 -55 -27 -55 -5 0 -7 -4 -4 -9 3
-4 -3 -27 -14 -49 -11 -23 -20 -48 -20 -57 0 -8 -4 -15 -10 -15 -5 0 -10 -8
-10 -18 0 -10 -3 -22 -7 -26 -5 -4 -8 -11 -9 -14 0 -4 -6 -20 -12 -35 -7 -16
-12 -30 -12 -33 0 -2 -8 -23 -19 -47 -71 -161 -91 -210 -91 -222 0 -8 -7 -21
-16 -29 -8 -9 -13 -16 -9 -16 3 0 -6 -20 -19 -45 -14 -25 -24 -45 -22 -45 8 0
-158 -314 -174 -330 -3 -3 -23 -32 -45 -65 -22 -33 -46 -66 -52 -73 -7 -7 -13
-18 -13 -23 0 -6 -4 -7 -10 -4 -5 3 -10 2 -10 -3 0 -20 -160 -165 -160 -145 0
4 -4 3 -8 -3 -18 -29 -228 -126 -302 -141 -41 -8 -55 -11 -57 -13 -2 -2 -7 -4
-13 -5 -5 -1 -13 -4 -17 -5 -5 -1 -12 -3 -18 -5 -5 -1 -12 -3 -15 -5 -3 -1
-18 -4 -35 -6 -16 -1 -39 -5 -50 -8 -11 -2 -22 -5 -24 -5 -2 -1 2 -7 8 -15 8
-10 9 -16 1 -21 -6 -3 -7 -12 -3 -18 9 -15 11 -47 3 -47 -6 0 -5 -41 0 -47 7
-9 4 -29 -5 -35 -6 -5 -3 -8 8 -8 9 0 17 -6 17 -12 0 -9 3 -10 8 -2 4 6 39 11
82 11 43 0 78 -5 82 -11 5 -8 8 -7 8 1 0 15 60 14 60 -1 0 -8 2 -8 8 0 9 14
155 14 164 0 5 -8 8 -7 8 1 0 15 60 14 60 -1 0 -8 2 -8 8 0 4 6 39 11 82 11
43 0 78 -5 82 -11 5 -8 8 -7 8 1 0 15 60 14 60 -1 0 -8 2 -8 8 0 9 14 155 14
164 0 5 -8 8 -7 8 1 0 15 60 14 60 -1 0 -8 2 -8 8 0 9 14 224 14 234 0 5 -8 8
-8 8 0 0 15 152 15 162 0 5 -8 8 -7 8 1 0 15 60 14 60 -1 0 -8 2 -8 8 0 4 6
39 11 82 11 43 0 78 -5 82 -11 5 -8 8 -7 8 1 0 15 60 14 60 -1 0 -8 2 -8 8 0
9 14 155 14 164 0 5 -8 8 -7 8 1 0 15 60 14 60 -1 0 -8 2 -8 8 0 9 15 135 14
144 0 5 -8 8 -7 8 1 0 16 69 15 89 -1 11 -8 13 -8 7 2 -5 8 0 12 16 12 22 0
23 2 23 92 -1 62 -5 93 -13 96 -7 2 -10 8 -6 13 3 5 -6 5 -20 -1 -14 -5 -26
-6 -26 -2 0 4 -24 7 -53 7 -28 0 -56 3 -62 6 -5 3 -32 9 -60 12 -27 4 -60 9
-72 12 -13 3 -31 7 -40 9 -49 11 -183 60 -183 66 0 4 -13 13 -30 20 -59 24
-181 197 -166 235 3 8 0 15 -5 17 -5 2 -11 24 -13 51 -1 26 -5 50 -9 53 -3 3
-2 17 3 30 6 16 6 24 -1 24 -6 0 -7 5 -2 13 4 6 8 21 9 32 0 11 5 47 9 80 5
33 8 63 7 68 -1 4 2 7 6 7 4 0 8 10 9 23 0 12 13 63 27 112 15 50 29 97 31
105 2 8 4 17 5 20 1 3 2 8 1 13 0 4 4 7 10 7 6 0 9 7 6 15 -4 8 -2 17 3 20 6
4 10 12 10 19 0 8 8 31 17 52 9 22 18 48 20 58 2 11 8 25 14 32 6 7 8 17 5 23
-3 5 -2 11 2 13 5 1 21 35 37 73 15 39 32 76 39 84 9 12 8 13 -4 6 -13 -8 -13
-7 0 9 8 10 15 23 16 30 1 6 15 43 32 81 35 85 45 108 46 115 1 3 5 11 9 17 5
7 10 23 12 35 3 12 10 25 16 28 6 4 10 10 10 14 -2 11 3 24 19 61 7 17 14 35
15 40 4 17 69 170 75 175 3 3 6 12 8 21 1 9 20 58 42 109 22 51 37 97 34 101
-3 5 -1 9 4 9 9 0 25 37 23 53 -1 4 4 7 9 7 6 0 10 6 8 13 -1 6 8 34 20 61 13
28 25 60 28 73 4 13 10 23 15 23 5 0 6 7 3 15 -4 8 -1 15 5 15 6 0 11 8 11 18
0 10 3 22 7 26 5 4 8 11 9 14 0 4 7 23 15 42 9 19 24 58 34 85 11 28 23 53 28
56 5 3 8 9 8 13 -3 15 12 56 20 56 5 0 6 7 3 15 -4 8 -1 15 5 15 6 0 10 3 9 8
0 4 2 16 6 27 15 39 69 171 87 212 11 24 19 45 19 48 0 4 9 25 19 48 11 24 23
55 26 70 4 15 11 27 17 27 5 0 7 3 5 8 -3 4 3 25 14 46 10 22 19 43 19 47 0 3
12 33 27 65 14 33 28 68 30 78 2 11 7 24 12 30 4 6 30 67 57 136 26 69 53 128
59 132 5 4 7 8 3 8 -7 0 2 24 39 110 17 41 26 60 49 115 9 22 16 46 15 53 -1
6 3 12 9 12 5 0 10 8 10 18 0 10 7 27 15 38 8 12 11 24 7 28 -3 4 -2 10 3 14
11 8 55 111 55 129 0 6 5 13 10 15 6 2 11 17 13 35 1 17 4 30 7 28 3 -2 13 18
23 43 10 26 26 64 37 85 10 20 13 34 7 30 -8 -5 -8 -2 0 8 7 9 29 56 48 105
20 49 40 98 45 109 20 46 52 121 54 130 4 15 16 44 39 95 12 25 20 51 19 58
-2 6 2 12 8 12 5 0 9 3 8 8 0 4 3 16 7 27 43 103 67 162 69 170 1 6 12 32 24
59 12 27 22 50 22 52 0 1 5 15 12 31 6 15 12 30 13 33 12 34 22 48 30 42 9 -6
32 -60 38 -87 1 -5 8 -16 15 -23 6 -7 12 -19 12 -26 0 -7 8 -30 19 -52 10 -21
25 -55 34 -74 8 -19 24 -56 36 -82 11 -26 21 -52 21 -58 0 -5 5 -10 11 -10 5
0 8 -4 5 -9 -3 -5 5 -29 19 -55 13 -25 25 -50 26 -54 1 -4 6 -18 12 -32 6 -14
11 -27 12 -30 0 -3 10 -25 22 -50 24 -51 54 -123 55 -130 0 -3 9 -22 19 -42
10 -21 19 -44 19 -53 0 -8 5 -15 10 -15 6 0 10 -9 10 -19 0 -11 4 -21 10 -23
5 -1 11 -12 14 -23 8 -39 18 -65 25 -65 4 0 8 -6 8 -12 1 -17 94 -231 103
-238 4 -3 6 -13 4 -22 -1 -10 2 -18 6 -18 5 0 12 -10 15 -22 4 -13 20 -51 36
-86 16 -35 29 -65 29 -66 0 -2 8 -21 17 -42 9 -22 17 -41 18 -44 0 -3 8 -19
18 -36 9 -17 14 -34 11 -36 -2 -3 2 -11 11 -18 8 -7 15 -18 15 -25 0 -7 14
-43 31 -81 16 -38 37 -85 46 -104 8 -19 21 -48 29 -64 8 -16 14 -35 14 -43 0
-7 5 -13 10 -13 6 0 10 -6 10 -14 0 -12 16 -51 95 -231 7 -16 23 -52 35 -80
12 -27 28 -65 36 -82 8 -18 21 -48 29 -66 13 -30 69 -161 98 -227 6 -14 11
-27 12 -30 0 -3 8 -21 17 -40 44 -98 58 -131 58 -140 0 -5 5 -10 10 -10 6 0
10 -6 10 -14 0 -7 8 -31 17 -52 9 -22 17 -41 18 -44 2 -5 28 -66 50 -115 69
-151 102 -234 97 -239 -3 -3 0 -6 6 -6 7 0 12 -4 12 -9 0 -5 8 -26 17 -47 9
-22 17 -41 18 -44 3 -8 21 -51 47 -110 35 -77 41 -94 40 -102 -1 -5 3 -8 8 -8
6 0 10 -5 10 -11 0 -6 30 -79 66 -163 37 -83 67 -157 67 -163 0 -7 4 -13 9
-13 4 0 8 -7 8 -15 0 -8 5 -15 11 -15 5 0 8 -4 5 -9 -3 -4 5 -31 19 -59 13
-27 27 -62 31 -76 3 -14 10 -26 15 -26 5 0 9 -9 9 -19 0 -11 5 -23 10 -26 6
-3 10 -14 10 -23 0 -9 13 -43 29 -74 16 -32 25 -55 20 -52 -5 3 -6 -2 -3 -10
3 -9 11 -16 16 -16 6 0 8 -9 5 -20 -3 -11 -1 -20 4 -20 5 0 9 -9 9 -20 0 -11
4 -20 8 -20 5 0 9 -6 10 -12 2 -23 8 -42 19 -63 5 -11 8 -26 6 -32 -3 -7 0
-13 6 -13 6 0 10 -3 9 -7 -1 -5 5 -28 12 -53 7 -25 13 -49 11 -54 -1 -4 4 -14
10 -22 7 -8 9 -17 7 -20 -3 -3 0 -25 7 -49 8 -24 11 -46 8 -49 -4 -3 0 -6 8
-6 11 0 11 -2 -1 -10 -8 -5 -10 -10 -4 -10 5 0 9 -18 8 -40 -1 -22 3 -40 8
-40 5 0 6 -6 1 -12 -4 -7 -8 -33 -9 -58 -1 -25 -5 -58 -9 -74 -8 -39 -51 -122
-75 -146 -11 -11 -18 -20 -15 -20 3 0 -5 -11 -17 -24 -13 -13 -26 -21 -30 -19
-5 2 -8 -1 -8 -7 0 -11 -127 -76 -166 -85 -10 -3 -46 -11 -79 -20 -55 -14 -72
-18 -130 -29 -30 -5 -136 -19 -167 -22 -16 -1 -31 -3 -35 -4 -5 -1 -20 -2 -35
-2 -19 -1 -28 -6 -29 -17 -1 -9 -2 -53 -3 -98 -1 -94 -12 -86 109 -85 41 0 73
-5 77 -12 6 -8 8 -8 8 0 0 15 152 15 162 0 5 -8 8 -7 8 1 0 15 60 14 60 -1 0
-8 2 -8 8 0 4 6 39 11 82 11 43 0 78 -5 82 -11 5 -8 8 -7 8 1 0 15 60 14 60
-1 0 -8 2 -8 8 0 9 14 155 14 164 0 5 -8 8 -7 8 1 0 15 60 14 60 -1 0 -8 2 -8
8 0 4 6 39 11 82 11 43 0 78 -5 82 -11 5 -8 8 -7 8 1 0 15 60 14 60 -1 0 -8 2
-8 8 0 4 6 39 11 82 11 43 0 78 -5 82 -11 5 -8 8 -7 8 1 0 15 60 14 60 -1 0
-8 2 -8 8 0 9 14 224 14 234 0 5 -8 8 -8 8 0 0 15 152 15 162 0 5 -8 8 -7 8 1
0 15 60 14 60 -1 0 -8 2 -8 8 0 4 6 39 11 82 11 43 0 78 -5 82 -11 5 -8 8 -7
8 1 0 15 60 14 60 -1 0 -8 2 -8 8 0 4 6 39 11 82 11 43 0 78 -5 82 -11 5 -8 8
-7 8 1 0 15 60 14 60 -1 0 -8 2 -8 8 0 4 6 39 11 82 11 43 0 78 -5 82 -11 5
-8 8 -7 8 1 0 15 60 14 60 -1 0 -8 2 -8 8 0 4 6 39 11 82 11 43 0 78 -5 82
-11 5 -8 8 -7 8 1 0 15 60 14 60 -1 0 -8 3 -8 8 0 4 7 23 12 42 12 94 0 85 -9
84 92 0 49 -4 93 -8 97 -4 5 -26 9 -49 10 -23 0 -42 2 -42 3 0 1 -18 3 -40 5
-83 5 -158 15 -172 24 -9 5 -24 6 -34 4 -11 -3 -19 0 -19 6 0 7 -5 9 -10 6 -6
-4 -19 -3 -28 1 -9 4 -24 8 -33 10 -9 2 -37 13 -63 24 -26 11 -52 20 -57 20
-14 0 -140 86 -134 92 3 2 -5 10 -18 17 -33 19 -118 135 -204 281 -56 97 -228
443 -237 480 -1 3 -9 21 -18 40 -38 84 -58 130 -58 134 0 3 -13 33 -29 68 -63
138 -85 190 -83 201 1 4 -3 7 -8 7 -5 0 -9 3 -8 8 1 4 -6 25 -16 47 -27 60
-43 96 -61 140 -9 22 -23 52 -31 67 -8 16 -12 28 -8 28 4 0 -1 9 -10 19 -10
11 -15 25 -11 30 3 6 2 11 -2 11 -9 0 -36 63 -33 76 1 4 -2 10 -7 13 -5 3 -20
33 -33 66 -13 33 -29 63 -34 67 -6 4 -7 8 -2 8 5 0 4 6 -2 12 -6 7 -11 18 -12
23 -2 12 -27 71 -46 106 -7 14 -11 29 -7 33 3 3 0 6 -7 6 -7 0 -11 2 -8 6 3 3
-7 32 -23 65 -16 32 -29 62 -29 65 0 3 -12 31 -26 62 -47 104 -54 120 -54 131
0 6 -5 11 -12 11 -6 0 -9 3 -6 6 3 3 -18 59 -47 124 -29 65 -50 121 -47 124 3
3 0 6 -6 6 -6 0 -13 13 -17 30 -4 16 -11 30 -17 30 -6 0 -9 3 -5 6 5 6 -4 31
-53 139 -12 28 -28 64 -35 80 -67 158 -122 283 -136 309 -6 10 -12 28 -15 40
-2 11 -8 22 -14 24 -6 2 -8 8 -4 13 3 5 0 9 -6 9 -6 0 -9 4 -6 8 2 4 -1 21 -9
37 -84 185 -89 197 -87 208 1 4 -3 7 -10 7 -6 0 -9 3 -5 6 3 4 -7 33 -23 65
-17 32 -30 65 -30 74 0 8 -5 15 -11 15 -6 0 -9 6 -6 14 3 8 -3 23 -13 34 -10
11 -16 22 -13 26 3 3 0 12 -6 20 -7 8 -9 21 -5 27 4 7 3 9 -3 6 -9 -6 -17 10
-28 53 0 3 -9 21 -20 40 -10 19 -20 40 -21 45 -4 26 -17 55 -25 55 -5 0 -9 6
-9 14 0 20 -61 160 -71 164 -5 2 -9 11 -9 20 0 10 -23 69 -52 132 -28 63 -51
121 -51 128 0 6 -4 12 -9 12 -4 0 -8 5 -8 10 0 11 -32 87 -55 130 -7 14 -14
30 -15 35 -1 6 -10 29 -21 52 -21 46 -42 95 -44 103 0 3 -9 23 -19 45 -10 22
-25 56 -34 75 -8 19 -26 56 -39 83 -12 26 -21 47 -18 47 3 0 -5 19 -17 43 -12
23 -23 44 -23 47 -1 3 -7 18 -13 33 -7 16 -12 33 -12 38 0 5 -5 9 -10 9 -6 0
-9 3 -8 8 2 9 -13 47 -57 145 -8 17 -15 39 -17 47 -2 8 -9 21 -16 28 -7 8 -10
18 -7 23 4 5 2 9 -2 9 -7 0 -31 50 -38 80 -1 3 -12 28 -24 55 -37 81 -44 100
-43 108 1 4 -3 7 -8 7 -5 0 -9 3 -8 8 1 7 -9 34 -41 105 -52 116 -96 223 -93
230 1 4 -3 7 -8 7 -6 0 -10 5 -10 10 0 10 -32 87 -51 122 -5 10 -9 25 -9 33 0
8 -4 15 -10 15 -5 0 -10 9 -10 19 0 11 -5 23 -10 26 -6 4 -8 11 -5 16 4 5 1 9
-4 9 -6 0 -10 3 -9 8 1 4 -5 23 -14 42 -31 66 -52 115 -52 125 -1 6 -7 16 -13
23 -11 12 -15 27 -12 48 0 4 -3 10 -8 13 -11 8 -49 93 -45 103 1 5 -2 8 -8 8
-5 0 -10 5 -10 11 0 6 -6 25 -14 42 -28 62 -49 112 -52 126 -1 8 -9 18 -16 22
-7 5 -9 9 -4 9 5 0 3 7 -4 15 -7 8 -9 15 -6 15 4 0 -2 13 -13 29 -11 15 -18
31 -15 33 2 3 -39 5 -91 5 -70 0 -101 -4 -111 -14z"/>
</g>
</svg>
